<mxfile host="app.diagrams.net" agent="Mozilla/5.0 (Macintosh; Intel Mac OS X 10_15_7) AppleWebKit/537.36 (KHTML, like Gecko) Chrome/131.0.0.0 Safari/537.36" version="25.0.3">
  <diagram name="Seite-1" id="IjrIodKS5X1Dpl3O7YE6">
    <mxGraphModel dx="954" dy="615" grid="1" gridSize="10" guides="1" tooltips="1" connect="1" arrows="1" fold="1" page="1" pageScale="1" pageWidth="827" pageHeight="1169" math="0" shadow="0">
      <root>
        <mxCell id="0" />
        <mxCell id="1" parent="0" />
        <mxCell id="8qVlIUjr8X_ybKYUl-mP-1" value="" style="whiteSpace=wrap;html=1;aspect=fixed;" parent="1" vertex="1">
          <mxGeometry x="340" y="173" width="130" height="130" as="geometry" />
        </mxCell>
        <mxCell id="8qVlIUjr8X_ybKYUl-mP-2" value="" style="rounded=0;whiteSpace=wrap;html=1;" parent="1" vertex="1">
          <mxGeometry x="380" y="223" width="120" height="110" as="geometry" />
        </mxCell>
        <mxCell id="8qVlIUjr8X_ybKYUl-mP-3" value="" style="rounded=0;whiteSpace=wrap;html=1;fillColor=#dae8fc;strokeColor=#6c8ebf;" parent="1" vertex="1">
          <mxGeometry x="380" y="223" width="90" height="80" as="geometry" />
        </mxCell>
        <mxCell id="8qVlIUjr8X_ybKYUl-mP-5" value="" style="whiteSpace=wrap;html=1;aspect=fixed;fillColor=#dae8fc;strokeColor=#6c8ebf;" parent="1" vertex="1">
          <mxGeometry x="340" y="380" width="130" height="130" as="geometry" />
        </mxCell>
        <mxCell id="8qVlIUjr8X_ybKYUl-mP-6" value="" style="rounded=0;whiteSpace=wrap;html=1;fillColor=#dae8fc;strokeColor=#6c8ebf;" parent="1" vertex="1">
          <mxGeometry x="380" y="430" width="120" height="110" as="geometry" />
        </mxCell>
        <mxCell id="8qVlIUjr8X_ybKYUl-mP-7" value="" style="rounded=0;whiteSpace=wrap;html=1;fillColor=#dae8fc;strokeColor=#6c8ebf;" parent="1" vertex="1">
          <mxGeometry x="380" y="430" width="90" height="80" as="geometry" />
        </mxCell>
        <mxCell id="8qVlIUjr8X_ybKYUl-mP-8" value="" style="endArrow=none;html=1;rounded=0;" parent="1" edge="1">
          <mxGeometry width="50" height="50" relative="1" as="geometry">
            <mxPoint x="170" y="360" as="sourcePoint" />
            <mxPoint x="510" y="360" as="targetPoint" />
          </mxGeometry>
        </mxCell>
        <mxCell id="8qVlIUjr8X_ybKYUl-mP-10" value="Overlapping Area" style="text;html=1;align=center;verticalAlign=middle;resizable=0;points=[];autosize=1;strokeColor=none;fillColor=none;fontSize=24;" parent="1" vertex="1">
          <mxGeometry x="145" y="310" width="210" height="40" as="geometry" />
        </mxCell>
        <mxCell id="8qVlIUjr8X_ybKYUl-mP-11" value="Area of Union" style="text;html=1;align=center;verticalAlign=middle;resizable=0;points=[];autosize=1;strokeColor=none;fillColor=none;fontSize=24;" parent="1" vertex="1">
          <mxGeometry x="165" y="370" width="170" height="40" as="geometry" />
        </mxCell>
        <mxCell id="8qVlIUjr8X_ybKYUl-mP-13" value="" style="shape=image;html=1;verticalAlign=top;verticalLabelPosition=bottom;labelBackgroundColor=#ffffff;imageAspect=0;aspect=fixed;image=https://cdn2.iconfinder.com/data/icons/css-vol-2/24/math-equal-128.png" parent="1" vertex="1">
          <mxGeometry x="117" y="340" width="40" height="40" as="geometry" />
        </mxCell>
        <mxCell id="8qVlIUjr8X_ybKYUl-mP-14" value="IoU" style="text;html=1;align=center;verticalAlign=middle;whiteSpace=wrap;rounded=0;fontSize=24;" parent="1" vertex="1">
          <mxGeometry x="54" y="345" width="60" height="30" as="geometry" />
        </mxCell>
      </root>
    </mxGraphModel>
  </diagram>
</mxfile>
